<svg width="81" height="83" viewBox="0 0 81 83" fill="none" xmlns="http://www.w3.org/2000/svg">
<circle cx="40.5002" cy="40.5" r="37.5" fill="#E7A39B" stroke="#E7A39B" stroke-width="6"/>
<g filter="url(#filter0_d_35_89)">
<circle cx="40.5002" cy="40.5" r="34.5" fill="#D9D9D9"/>
</g>
<g filter="url(#filter1_d_35_89)">
<path d="M40.5864 51.875L55.2502 37.25L50.6066 32.7L40.5864 42.6938L30.5662 32.7L25.9226 37.25L40.5864 51.875ZM40.5864 73C36.0786 73 31.8424 72.1474 27.8778 70.4423C23.9131 68.7371 20.4644 66.4209 17.5317 63.4938C14.5989 60.5688 12.2777 57.1292 10.568 53.175C8.85835 49.2208 8.00242 44.9958 8.00024 40.5C8.00024 36.0042 8.85617 31.7792 10.568 27.825C12.2799 23.8708 14.6011 20.4313 17.5317 17.5063C20.4644 14.5813 23.9131 12.2651 27.8778 10.5578C31.8424 8.85042 36.0786 7.99784 40.5864 8C45.0941 8 49.3303 8.85367 53.295 10.561C57.2596 12.2683 60.7083 14.5834 63.6411 17.5063C66.5739 20.4313 68.8962 23.8708 70.608 27.825C72.3199 31.7792 73.1747 36.0042 73.1725 40.5C73.1725 44.9958 72.3166 49.2208 70.6048 53.175C68.8929 57.1292 66.5717 60.5688 63.6411 63.4938C60.7083 66.4188 57.2596 68.7349 53.295 70.4423C49.3303 72.1496 45.0941 73.0022 40.5864 73ZM40.5864 66.5C47.864 66.5 54.0282 63.9813 59.079 58.9438C64.1299 53.9063 66.6553 47.7583 66.6553 40.5C66.6553 33.2417 64.1299 27.0938 59.079 22.0563C54.0282 17.0188 47.864 14.5 40.5864 14.5C33.3088 14.5 27.1446 17.0188 22.0938 22.0563C17.0429 27.0938 14.5175 33.2417 14.5175 40.5C14.5175 47.7583 17.0429 53.9063 22.0938 58.9438C27.1446 63.9813 33.3088 66.5 40.5864 66.5Z" fill="url(#paint0_linear_35_89)"/>
</g>
<defs>
<filter id="filter0_d_35_89" x="2.00024" y="6" width="77" height="77" filterUnits="userSpaceOnUse" color-interpolation-filters="sRGB">
<feFlood flood-opacity="0" result="BackgroundImageFix"/>
<feColorMatrix in="SourceAlpha" type="matrix" values="0 0 0 0 0 0 0 0 0 0 0 0 0 0 0 0 0 0 127 0" result="hardAlpha"/>
<feOffset dy="4"/>
<feGaussianBlur stdDeviation="2"/>
<feComposite in2="hardAlpha" operator="out"/>
<feColorMatrix type="matrix" values="0 0 0 0 0 0 0 0 0 0 0 0 0 0 0 0 0 0 0.25 0"/>
<feBlend mode="normal" in2="BackgroundImageFix" result="effect1_dropShadow_35_89"/>
<feBlend mode="normal" in="SourceGraphic" in2="effect1_dropShadow_35_89" result="shape"/>
</filter>
<filter id="filter1_d_35_89" x="5.00024" y="6" width="71.1724" height="71" filterUnits="userSpaceOnUse" color-interpolation-filters="sRGB">
<feFlood flood-opacity="0" result="BackgroundImageFix"/>
<feColorMatrix in="SourceAlpha" type="matrix" values="0 0 0 0 0 0 0 0 0 0 0 0 0 0 0 0 0 0 127 0" result="hardAlpha"/>
<feOffset dy="1"/>
<feGaussianBlur stdDeviation="1.5"/>
<feComposite in2="hardAlpha" operator="out"/>
<feColorMatrix type="matrix" values="0 0 0 0 0 0 0 0 0 0 0 0 0 0 0 0 0 0 0.25 0"/>
<feBlend mode="normal" in2="BackgroundImageFix" result="effect1_dropShadow_35_89"/>
<feBlend mode="normal" in="SourceGraphic" in2="effect1_dropShadow_35_89" result="shape"/>
</filter>
<linearGradient id="paint0_linear_35_89" x1="40.0851" y1="7.99999" x2="40.0851" y2="73" gradientUnits="userSpaceOnUse">
<stop offset="0.403134" stop-color="#AB6152"/>
<stop offset="0.897758" stop-color="#F1AEA7"/>
</linearGradient>
</defs>
</svg>
